<svg viewBox="0 0 100 100" fill="none" xmlns="http://www.w3.org/2000/svg">
  <defs>
    <linearGradient id="gold-gradient" x1="0%" y1="0%" x2="100%" y2="100%">
      <stop offset="0%" stopColor="#C9A227" />
      <stop offset="100%" stopColor="#E8C97A" />
    </linearGradient>
  </defs>
  
  <circle cx="50" cy="50" r="45" stroke="url(#gold-gradient)" stroke-width="1.5" stroke-dasharray="3 3" />
  <circle cx="50" cy="50" r="40" stroke="url(#gold-gradient)" stroke-width="2" />
  
  <path d="M50 15 L54 46 L50 50 Z" fill="url(#gold-gradient)" />
  <path d="M50 15 L46 46 L50 50 Z" fill="url(#gold-gradient)" opacity="0.7" />
  
  <path d="M50 85 L46 54 L50 50 Z" fill="url(#gold-gradient)" />
  <path d="M50 85 L54 54 L50 50 Z" fill="url(#gold-gradient)" opacity="0.7" />
  
  <path d="M85 50 L54 46 L50 50 Z" fill="url(#gold-gradient)" />
  <path d="M85 50 L54 54 L50 50 Z" fill="url(#gold-gradient)" opacity="0.7" />
  
  <path d="M15 50 L46 54 L50 50 Z" fill="url(#gold-gradient)" />
  <path d="M15 50 L46 46 L50 50 Z" fill="url(#gold-gradient)" opacity="0.7" />
  
  <circle cx="50" cy="50" r="5" fill="url(#gold-gradient)" />
</svg>